<svg clip-rule="evenodd" fill-rule="evenodd" height="16" stroke-linejoin="round" stroke-miterlimit="1.41421" width="16" xmlns="http://www.w3.org/2000/svg"><g fill-rule="nonzero"><path d="m.504.008c0-.005-.215-.368-.363-.693-.03-.066-.162-.395-.138-.398.082.194.314.164.35.16.092-.011.273-.085.298-.095.045-.015.19-.09.312-.103.002 0 .039-.009.037.047-.01.133-.122.367-.122.367-.114.238-.372.715-.374.715z" transform="matrix(9.88839 0 0 -9.88839 3.05492 .079107)"/><path d="m.095-.027c-.059-.042-.092-.103-.092-.103-.002-.007.002-.025.003-.033.001-.001.002-.003.007.005.014.019.061.079.183.072.115-.008.343-.177.356-.184s.128-.089.231-.128c.109-.031.15.024.162.042.012.017.055.097.055.126-.047-.009-.122.02-.178.041-.05.018-.309.148-.36.167-.052.019-.111.04-.188.043-.006 0-.012.001-.018.001-.072 0-.119-.02-.161-.049z" transform="matrix(9.6883 0 0 -9.68829 3.07417 10.0706)"/><path d="m.095-.001c-.052-.016-.085-.047-.093-.056-.002-.002-.002-.006-.002-.006.024-.229.224-.372.224-.372s.2-.17.472-.162c.126.004.253.073.304.127-.124.019-.287.145-.326.174-.039.03-.264.204-.287.218-.089.064-.162.079-.162.079s-.028.007-.065.007c-.021 0-.043-.002-.065-.009z" transform="matrix(7.53976 0 0 -7.53976 3.21214 11.4967)"/></g></svg>