<svg clip-rule="evenodd" fill-rule="evenodd" height="32" stroke-linejoin="round" stroke-miterlimit="1.41421" width="32" xmlns="http://www.w3.org/2000/svg"><path d="m16 0c8.831 0 16 7.169 16 16s-7.169 16-16 16-16-7.169-16-16 7.169-16 16-16zm1 15v-7c0-.265-.105-.52-.293-.707-.187-.188-.442-.293-.707-.293s-.52.105-.707.293c-.188.187-.293.442-.293.707v7h-7c-.265 0-.52.105-.707.293-.188.187-.293.442-.293.707s.105.52.293.707c.187.188.442.293.707.293h7v7c0 .265.105.52.293.707.187.188.442.293.707.293s.52-.105.707-.293c.188-.187.293-.442.293-.707v-7h7c.265 0 .52-.105.707-.293.188-.187.293-.442.293-.707s-.105-.52-.293-.707c-.187-.188-.442-.293-.707-.293z" fill="#43a647"/></svg>