<svg clip-rule="evenodd" fill-rule="evenodd" height="20" stroke-linejoin="round" stroke-miterlimit="1.41421" width="66" xmlns="http://www.w3.org/2000/svg"><g fill="#fff" fill-rule="nonzero"><g stroke="#fff" stroke-width=".91" transform="matrix(.07325181542 0 0 .0732520808 -34.2860691648 -43.192739692)"><path d="m639.482 743.348c0 .589-.084 1.304-.253 2.145-.168.841-.462 1.892-.883 3.153l-33.427 107.849c-.252.925-.651 1.682-1.198 2.271-.546.588-1.303 1.051-2.27 1.387-.967.337-2.292.568-3.974.694s-3.784.189-6.307.189c-2.607 0-4.793-.084-6.559-.252s-3.174-.42-4.226-.757c-1.051-.336-1.829-.799-2.333-1.387-.505-.589-.883-1.304-1.135-2.145l-23.841-82.369-.252-1.135-.252 1.135-22.075 82.369c-.252.925-.651 1.682-1.198 2.271-.547.588-1.367 1.051-2.46 1.387-1.093.337-2.502.568-4.225.694-1.724.126-3.848.189-6.371.189-2.606 0-4.73-.084-6.37-.252-1.639-.168-2.985-.42-4.036-.757-1.051-.336-1.829-.799-2.334-1.387-.504-.589-.883-1.304-1.135-2.145l-33.174-107.849c-.421-1.261-.715-2.312-.883-3.153-.169-.841-.253-1.556-.253-2.145 0-.757.168-1.366.505-1.829.336-.462.904-.841 1.703-1.135s1.871-.484 3.216-.568c1.346-.084 2.986-.126 4.92-.126 2.354 0 4.246.063 5.676.189 1.43.127 2.523.337 3.28.631.756.294 1.303.715 1.639 1.262.337.546.631 1.198.883 1.955l27.373 93.595.252 1.135.252-1.135 25.102-93.595c.168-.757.441-1.409.82-1.955.378-.547.946-.968 1.703-1.262s1.787-.504 3.09-.631c1.304-.126 3.006-.189 5.109-.189 2.018 0 3.679.063 4.982.189 1.304.127 2.334.337 3.091.631.756.294 1.303.694 1.639 1.198.337.505.589 1.094.757 1.766l27.12 93.848.253 1.135.126-1.135 26.993-93.595c.169-.757.442-1.409.82-1.955.379-.547.967-.968 1.766-1.262s1.892-.504 3.28-.631c1.387-.126 3.174-.189 5.361-.189 2.018 0 3.637.042 4.856.126 1.22.084 2.187.295 2.901.631.715.336 1.22.715 1.514 1.135.294.421.442 1.009.442 1.766z"/><path d="m747.961 857.252c0 1.009-.336 1.766-1.009 2.271-.672.504-1.597.883-2.775 1.135-1.177.252-2.901.378-5.171.378-2.187 0-3.932-.126-5.235-.378-1.304-.252-2.25-.631-2.838-1.135-.589-.505-.883-1.262-.883-2.271v-11.352c-4.962 5.297-10.491 9.418-16.588 12.361-6.096 2.943-12.551 4.415-19.362 4.415-5.971 0-11.374-.778-16.209-2.334-4.835-1.555-8.956-3.805-12.362-6.748-3.405-2.943-6.054-6.559-7.946-10.848s-2.839-9.166-2.839-14.632c0-6.391 1.304-11.941 3.911-16.651 2.607-4.709 6.349-8.619 11.226-11.73 4.878-3.112 10.848-5.445 17.912-7.001s15.011-2.334 23.84-2.334h15.642v-8.83c0-4.372-.463-8.241-1.388-11.604-.925-3.364-2.418-6.16-4.478-8.389-2.06-2.228-4.73-3.91-8.01-5.045-3.279-1.135-7.316-1.703-12.109-1.703-5.13 0-9.734.61-13.812 1.829-4.079 1.219-7.653 2.565-10.722 4.036-3.07 1.472-5.634 2.818-7.695 4.037-2.06 1.219-3.595 1.829-4.604 1.829-.673 0-1.261-.168-1.766-.505-.504-.336-.946-.841-1.324-1.513-.379-.673-.652-1.535-.82-2.586s-.252-2.208-.252-3.469c0-2.102.147-3.763.441-4.983.294-1.219 1.009-2.375 2.144-3.468 1.136-1.094 3.091-2.376 5.866-3.848 2.775-1.471 5.971-2.817 9.587-4.036s7.568-2.229 11.857-3.027c4.288-.799 8.619-1.199 12.992-1.199 8.157 0 15.095.925 20.813 2.775s10.343 4.562 13.875 8.136 6.097 8.01 7.695 13.308 2.396 11.479 2.396 18.543zm-20.686-51.843h-17.786c-5.718 0-10.68.483-14.885 1.45-4.204.967-7.694 2.397-10.469 4.289s-4.814 4.163-6.118 6.812c-1.303 2.649-1.955 5.697-1.955 9.145 0 5.886 1.871 10.574 5.613 14.064s8.977 5.235 15.705 5.235c5.466 0 10.532-1.387 15.199-4.163 4.668-2.775 9.566-7.021 14.696-12.74z"/><path d="m954.578 857.126c0 .673-.169 1.24-.505 1.703-.336.462-.883.862-1.64 1.198-.757.337-1.808.589-3.153.757-1.346.168-3.028.252-5.046.252-2.102 0-3.826-.084-5.171-.252-1.346-.168-2.418-.42-3.217-.757-.799-.336-1.367-.736-1.703-1.198-.336-.463-.504-1.03-.504-1.703v-68.998c0-4.794-.421-9.166-1.262-13.119-.841-3.952-2.186-7.358-4.036-10.217s-4.205-5.046-7.064-6.559c-2.859-1.514-6.223-2.271-10.091-2.271-4.794 0-9.608 1.85-14.443 5.55-4.836 3.7-10.154 9.124-15.957 16.272v79.342c0 .673-.168 1.24-.504 1.703-.337.462-.904.862-1.703 1.198-.799.337-1.871.589-3.217.757-1.345.168-3.027.252-5.045.252-1.935 0-3.595-.084-4.983-.252-1.387-.168-2.481-.42-3.28-.757-.798-.336-1.345-.736-1.639-1.198-.295-.463-.442-1.03-.442-1.703v-68.998c0-4.794-.462-9.166-1.387-13.119-.925-3.952-2.313-7.358-4.163-10.217s-4.184-5.046-7.001-6.559c-2.817-1.514-6.16-2.271-10.028-2.271-4.793 0-9.628 1.85-14.506 5.55-4.877 3.7-10.175 9.124-15.893 16.272v79.342c0 .673-.169 1.24-.505 1.703-.336.462-.883.862-1.64 1.198-.757.337-1.808.589-3.153.757-1.346.168-3.07.252-5.172.252-2.018 0-3.7-.084-5.046-.252-1.345-.168-2.417-.42-3.216-.757-.799-.336-1.346-.736-1.64-1.198-.294-.463-.441-1.03-.441-1.703v-113.525c0-.673.126-1.241.378-1.703.252-.463.757-.883 1.514-1.262.757-.378 1.724-.63 2.901-.757 1.177-.126 2.733-.189 4.667-.189 1.85 0 3.385.063 4.604.189 1.22.127 2.166.379 2.838.757.673.379 1.157.799 1.451 1.262.294.462.441 1.03.441 1.703v15.01c6.391-7.148 12.593-12.383 18.606-15.704 6.013-3.322 12.088-4.983 18.227-4.983 4.709 0 8.935.547 12.677 1.64s7.043 2.628 9.902 4.604 5.298 4.331 7.316 7.064 3.7 5.781 5.046 9.145c3.784-4.12 7.379-7.61 10.785-10.469 3.405-2.86 6.685-5.172 9.838-6.938 3.154-1.766 6.223-3.049 9.209-3.847 2.985-.799 5.991-1.199 9.019-1.199 7.316 0 13.454 1.283 18.416 3.848 4.961 2.564 8.977 5.991 12.046 10.28 3.07 4.289 5.256 9.313 6.559 15.074 1.304 5.76 1.956 11.836 1.956 18.227z"/><path d="m1078.07 857.252c0 1.009-.34 1.766-1.01 2.271-.67.504-1.6.883-2.78 1.135-1.17.252-2.9.378-5.17.378-2.18 0-3.93-.126-5.23-.378-1.31-.252-2.25-.631-2.84-1.135-.59-.505-.88-1.262-.88-2.271v-11.352c-4.97 5.297-10.49 9.418-16.59 12.361s-12.55 4.415-19.36 4.415c-5.97 0-11.38-.778-16.21-2.334-4.84-1.555-8.958-3.805-12.364-6.748s-6.055-6.559-7.947-10.848-2.838-9.166-2.838-14.632c0-6.391 1.304-11.941 3.91-16.651 2.607-4.709 6.349-8.619 11.227-11.73 4.882-3.112 10.852-5.445 17.912-7.001s15.01-2.334 23.84-2.334h15.64v-8.83c0-4.372-.46-8.241-1.39-11.604-.92-3.364-2.41-6.16-4.47-8.389-2.07-2.228-4.73-3.91-8.01-5.045s-7.32-1.703-12.11-1.703c-5.13 0-9.74.61-13.82 1.829-4.07 1.219-7.65 2.565-10.72 4.036-3.07 1.472-5.63 2.818-7.692 4.037-2.06 1.219-3.595 1.829-4.604 1.829-.673 0-1.262-.168-1.766-.505-.505-.336-.946-.841-1.325-1.513-.378-.673-.651-1.535-.82-2.586-.168-1.051-.252-2.208-.252-3.469 0-2.102.147-3.763.442-4.983.294-1.219 1.009-2.375 2.144-3.468 1.135-1.094 3.09-2.376 5.866-3.848 2.777-1.471 5.967-2.817 9.587-4.036s7.57-2.229 11.86-3.027c4.29-.799 8.62-1.199 12.99-1.199 8.16 0 15.09.925 20.81 2.775s10.34 4.562 13.88 8.136c3.53 3.574 6.09 8.01 7.69 13.308s2.4 11.479 2.4 18.543zm-20.69-51.843h-17.78c-5.72 0-10.68.483-14.89 1.45-4.2.967-7.69 2.397-10.47 4.289-2.77 1.892-4.81 4.163-6.12 6.812-1.3 2.649-1.95 5.697-1.95 9.145 0 5.886 1.87 10.574 5.61 14.064s8.98 5.235 15.71 5.235c5.46 0 10.53-1.387 15.2-4.163 4.66-2.775 9.56-7.021 14.69-12.74z"/><path d="m1199.92 854.729c.67 1.178 1.01 2.166 1.01 2.965 0 .798-.4 1.45-1.2 1.955-.8.504-2.02.862-3.66 1.072s-3.76.315-6.37.315c-2.52 0-4.52-.063-5.99-.189s-2.65-.336-3.53-.631c-.88-.294-1.56-.672-2.02-1.135-.46-.462-.86-.988-1.2-1.577l-27.25-45.031-27.11 45.031c-.34.589-.74 1.115-1.2 1.577-.47.463-1.14.841-2.02 1.135-.88.295-2.04.505-3.47.631s-3.32.189-5.68.189c-2.43 0-4.43-.105-5.99-.315-1.55-.21-2.69-.568-3.4-1.072-.72-.505-1.05-1.157-1.01-1.955.04-.799.44-1.787 1.2-2.965l35.31-55.375-33.42-53.357c-.67-1.177-1.03-2.165-1.07-2.964-.05-.799.33-1.472 1.13-2.018.8-.547 2.02-.904 3.66-1.072 1.64-.169 3.8-.253 6.49-.253 2.44 0 4.4.063 5.87.189 1.47.127 2.63.316 3.47.568s1.47.589 1.89 1.009c.42.421.8.925 1.14 1.514l25.86 42.257 26.23-42.257c.34-.505.72-.967 1.14-1.388.42-.42.98-.778 1.7-1.072.71-.294 1.72-.504 3.03-.631 1.3-.126 3.09-.189 5.36-.189 2.44 0 4.43.084 5.99.253 1.56.168 2.71.483 3.47.946.76.462 1.09 1.114 1.01 1.955-.09.841-.51 1.892-1.26 3.153l-33.18 52.726z"/></g><path d="m.504.008c0-.005-.215-.368-.363-.693-.03-.066-.162-.395-.138-.398.082.194.314.164.35.16.092-.011.273-.085.298-.095.045-.015.19-.09.312-.103.002 0 .039-.009.037.047-.01.133-.122.367-.122.367-.114.238-.372.715-.374.715z" transform="matrix(8.83683 0 0 -8.83683 57.1631 .327288)"/><path d="m.095-.027c-.059-.042-.092-.103-.092-.103-.002-.007.002-.025.003-.033.001-.001.002-.003.007.005.014.019.061.079.183.072.115-.008.343-.177.356-.184s.128-.089.231-.128c.109-.031.15.024.162.042.012.017.055.097.055.126-.047-.009-.122.02-.178.041-.05.018-.309.148-.36.167-.052.019-.111.04-.188.043-.006 0-.012.001-.018.001-.072 0-.119-.02-.161-.049z" transform="matrix(8.65802 0 0 -8.65801 57.1803 9.25628)"/><path d="m.095-.001c-.052-.016-.085-.047-.093-.056-.002-.002-.002-.006-.002-.006.024-.229.224-.372.224-.372s.2-.17.472-.162c.126.004.253.073.304.127-.124.019-.287.145-.326.174-.039.03-.264.204-.287.218-.089.064-.162.079-.162.079s-.028.007-.065.007c-.021 0-.043-.002-.065-.009z" transform="matrix(6.73796 0 0 -6.73796 57.3036 10.5307)"/></g></svg>