<svg id="Ebene_1" data-name="Ebene 1" xmlns="http://www.w3.org/2000/svg" viewBox="0 0 135.07 40.68"><defs><style>.cls-1,.cls-2{fill:#fff;}.cls-2{stroke:#fff;stroke-miterlimit:10.54;stroke-width:0.8px;}</style></defs><title>wamax_logo</title><path class="cls-1" d="M29.9,26.32a0.56,0.56,0,0,0-.23-0.17,1.24,1.24,0,0,0-.44-0.1L28.5,26q-0.5,0-.81,0a2,2,0,0,0-.5.1,0.54,0.54,0,0,0-.27.19,0.83,0.83,0,0,0-.12.3L22.71,40.8l0,0.17,0-.17-4.1-14.2a0.88,0.88,0,0,0-.11-0.27,0.51,0.51,0,0,0-.25-0.18,1.83,1.83,0,0,0-.47-0.1q-0.3,0-.75,0t-0.77,0a1.83,1.83,0,0,0-.47.1,0.55,0.55,0,0,0-.26.19,0.83,0.83,0,0,0-.12.3L11.55,40.8l0,0.17,0-.17L7.33,26.64a1.48,1.48,0,0,0-.13-0.3,0.49,0.49,0,0,0-.25-0.19,1.91,1.91,0,0,0-.5-0.1q-0.33,0-.86,0L4.85,26a1.76,1.76,0,0,0-.49.09,0.54,0.54,0,0,0-.26.17,0.46,0.46,0,0,0-.08.28,1.73,1.73,0,0,0,0,.32,4.16,4.16,0,0,0,.13.48l5,16.32a0.86,0.86,0,0,0,.17.32,0.76,0.76,0,0,0,.35.21,3.05,3.05,0,0,0,.61.11q0.37,0,1,0c0.38,0,.7,0,1,0a2.94,2.94,0,0,0,.64-0.11A0.84,0.84,0,0,0,13.29,44a0.8,0.8,0,0,0,.18-0.34l3.34-12.46,0-.17,0,0.17L20.5,43.7a0.86,0.86,0,0,0,.17.32,0.76,0.76,0,0,0,.35.21,3.12,3.12,0,0,0,.64.11q0.4,0,1,0c0.38,0,.7,0,1,0a2.45,2.45,0,0,0,.6-0.11A0.84,0.84,0,0,0,24.55,44a0.8,0.8,0,0,0,.18-0.34l5.06-16.32a4,4,0,0,0,.13-0.48,1.73,1.73,0,0,0,0-.32,0.44,0.44,0,0,0-.06-0.26h0Zm16.48,5.92A9.73,9.73,0,0,0,46,29.43a4.77,4.77,0,0,0-1.16-2,5.09,5.09,0,0,0-2.1-1.23,10.31,10.31,0,0,0-3.15-.42,10.79,10.79,0,0,0-2,.18,13.25,13.25,0,0,0-1.79.46,9.79,9.79,0,0,0-1.45.61,4.15,4.15,0,0,0-.89.58,1.09,1.09,0,0,0-.33.53,3.33,3.33,0,0,0-.07.75,3.39,3.39,0,0,0,0,.53,1.18,1.18,0,0,0,.12.39,0.65,0.65,0,0,0,.2.23,0.47,0.47,0,0,0,.27.08,1.6,1.6,0,0,0,.7-0.28q0.47-.28,1.16-0.61a11.29,11.29,0,0,1,1.62-.61,7.31,7.31,0,0,1,2.09-.28,5.64,5.64,0,0,1,1.83.26,2.92,2.92,0,0,1,1.21.76A3,3,0,0,1,43,30.61a6.64,6.64,0,0,1,.21,1.76V33.7H40.88a16.85,16.85,0,0,0-3.61.35,8.37,8.37,0,0,0-2.71,1.06,4.92,4.92,0,0,0-1.7,1.78,5.12,5.12,0,0,0-.59,2.52,5.44,5.44,0,0,0,.43,2.21,4.57,4.57,0,0,0,1.2,1.64,5.31,5.31,0,0,0,1.87,1,8,8,0,0,0,2.45.35A6.66,6.66,0,0,0,41.16,44a8.48,8.48,0,0,0,2.51-1.87v1.72a0.43,0.43,0,0,0,.13.34,1,1,0,0,0,.43.17,4.36,4.36,0,0,0,.79.06,4,4,0,0,0,.78-0.06,1.06,1.06,0,0,0,.42-0.17,0.4,0.4,0,0,0,.15-0.34V32.23h0Zm-3.13,7.39A9.92,9.92,0,0,1,41,41.55a4.42,4.42,0,0,1-2.3.63,3.35,3.35,0,0,1-2.38-.79,2.77,2.77,0,0,1-.85-2.13,3.09,3.09,0,0,1,.3-1.38,2.68,2.68,0,0,1,.93-1,4.65,4.65,0,0,1,1.58-.65A10.16,10.16,0,0,1,40.56,36h2.69v3.65h0Zm34.39-6.68a12.48,12.48,0,0,0-.3-2.76,6.26,6.26,0,0,0-1-2.28,5,5,0,0,0-1.82-1.56,6,6,0,0,0-2.79-.58,5.29,5.29,0,0,0-1.36.18,6.09,6.09,0,0,0-1.39.58,9.77,9.77,0,0,0-1.49,1.05,17.93,17.93,0,0,0-1.63,1.58,6.22,6.22,0,0,0-.76-1.38A4.69,4.69,0,0,0,64,26.71a5.18,5.18,0,0,0-1.5-.7,6.86,6.86,0,0,0-1.92-.25,5.65,5.65,0,0,0-2.76.75A11.17,11.17,0,0,0,55,28.89V26.62a0.47,0.47,0,0,0-.07-0.26,0.6,0.6,0,0,0-.22-0.19,1.15,1.15,0,0,0-.43-0.11q-0.28,0-.7,0a7,7,0,0,0-.71,0,1.28,1.28,0,0,0-.44.11,0.51,0.51,0,0,0-.23.19,0.53,0.53,0,0,0-.06.26V43.8a0.47,0.47,0,0,0,.07.26,0.51,0.51,0,0,0,.25.18,1.87,1.87,0,0,0,.49.11,6.42,6.42,0,0,0,.76,0,6.64,6.64,0,0,0,.78,0A1.8,1.8,0,0,0,55,44.24a0.6,0.6,0,0,0,.25-0.18,0.43,0.43,0,0,0,.08-0.26v-12a14.36,14.36,0,0,1,2.4-2.46,3.63,3.63,0,0,1,2.19-.84,3.16,3.16,0,0,1,1.52.34,2.88,2.88,0,0,1,1.06,1,4.87,4.87,0,0,1,.63,1.55,8.72,8.72,0,0,1,.21,2V43.8a0.47,0.47,0,0,0,.07.26,0.51,0.51,0,0,0,.25.18,1.89,1.89,0,0,0,.5.11,7.6,7.6,0,0,0,1.52,0,2,2,0,0,0,.49-0.11,0.6,0.6,0,0,0,.26-0.18,0.43,0.43,0,0,0,.08-0.26v-12a15.1,15.1,0,0,1,2.41-2.46,3.59,3.59,0,0,1,2.18-.84,3.22,3.22,0,0,1,1.53.34,2.86,2.86,0,0,1,1.07,1,4.59,4.59,0,0,1,.61,1.55,9.57,9.57,0,0,1,.19,2V43.8a0.43,0.43,0,0,0,.08.26,0.58,0.58,0,0,0,.26.18,1.87,1.87,0,0,0,.49.11,6.62,6.62,0,0,0,.78,0,6.42,6.42,0,0,0,.76,0,1.8,1.8,0,0,0,.48-0.11,0.6,0.6,0,0,0,.25-0.18,0.43,0.43,0,0,0,.08-0.26V32.94h0Zm18.68-.71A9.73,9.73,0,0,0,96,29.43a4.77,4.77,0,0,0-1.16-2,5.09,5.09,0,0,0-2.1-1.23,10.31,10.31,0,0,0-3.15-.42,10.79,10.79,0,0,0-2,.18,13.25,13.25,0,0,0-1.79.46,9.79,9.79,0,0,0-1.45.61,4.15,4.15,0,0,0-.89.58,1.09,1.09,0,0,0-.32.53,3.33,3.33,0,0,0-.07.75,3.39,3.39,0,0,0,0,.53,1.18,1.18,0,0,0,.12.39,0.65,0.65,0,0,0,.2.23,0.47,0.47,0,0,0,.27.08,1.6,1.6,0,0,0,.7-0.28q0.47-.28,1.16-0.61a11.29,11.29,0,0,1,1.62-.61,7.31,7.31,0,0,1,2.09-.28,5.64,5.64,0,0,1,1.83.26,2.92,2.92,0,0,1,1.21.76A3,3,0,0,1,93,30.61a6.64,6.64,0,0,1,.21,1.76V33.7H90.82a16.85,16.85,0,0,0-3.61.35,8.37,8.37,0,0,0-2.71,1.06,4.92,4.92,0,0,0-1.7,1.78,5.12,5.12,0,0,0-.59,2.52,5.44,5.44,0,0,0,.43,2.21,4.57,4.57,0,0,0,1.2,1.64,5.31,5.31,0,0,0,1.87,1,8,8,0,0,0,2.45.35A6.65,6.65,0,0,0,91.1,44a8.48,8.48,0,0,0,2.51-1.87v1.72a0.43,0.43,0,0,0,.13.34,1,1,0,0,0,.43.17,4.36,4.36,0,0,0,.79.06,4,4,0,0,0,.78-0.06,1.06,1.06,0,0,0,.42-0.17,0.4,0.4,0,0,0,.15-0.34V32.23h0Zm-3.13,7.39A9.92,9.92,0,0,1,91,41.55a4.42,4.42,0,0,1-2.3.63,3.35,3.35,0,0,1-2.38-.79,2.77,2.77,0,0,1-.85-2.13,3.09,3.09,0,0,1,.3-1.38,2.68,2.68,0,0,1,.93-1,4.66,4.66,0,0,1,1.58-.65A10.16,10.16,0,0,1,90.5,36h2.69v3.65h0ZM109.46,35l5-8a1.23,1.23,0,0,0,.19-0.48,0.29,0.29,0,0,0-.15-0.3,1.32,1.32,0,0,0-.53-0.14,8.88,8.88,0,0,0-.91,0q-0.52,0-.81,0a1.68,1.68,0,0,0-.46.1,0.8,0.8,0,0,0-.26.16,1.35,1.35,0,0,0-.17.21l-4,6.39-3.91-6.39a1.08,1.08,0,0,0-.17-0.23,0.67,0.67,0,0,0-.29-0.15,2.71,2.71,0,0,0-.53-0.09q-0.33,0-.89,0t-1,0a1.23,1.23,0,0,0-.55.16,0.34,0.34,0,0,0-.17.31,1.06,1.06,0,0,0,.16.45l5.06,8.07L99.8,43.43a1,1,0,0,0-.18.45,0.33,0.33,0,0,0,.15.3,1.2,1.2,0,0,0,.51.16,7,7,0,0,0,.91,0c0.36,0,.64,0,0.86,0a2.4,2.4,0,0,0,.53-0.1,0.77,0.77,0,0,0,.31-0.17,1.13,1.13,0,0,0,.18-0.24l4.1-6.81,4.12,6.81a1.13,1.13,0,0,0,.18.24,0.78,0.78,0,0,0,.31.17,2.43,2.43,0,0,0,.53.1c0.22,0,.53,0,0.91,0a7.83,7.83,0,0,0,1,0,1.41,1.41,0,0,0,.55-0.16,0.34,0.34,0,0,0,.18-0.3,1,1,0,0,0-.15-0.45L109.46,35h0Z" transform="translate(-3.63 -4.36)"/><path class="cls-2" d="M29.9,26.32a0.56,0.56,0,0,0-.23-0.17,1.24,1.24,0,0,0-.44-0.1L28.5,26q-0.5,0-.81,0a2,2,0,0,0-.5.1,0.54,0.54,0,0,0-.27.19,0.83,0.83,0,0,0-.12.3L22.71,40.8l0,0.17,0-.17-4.1-14.2a0.88,0.88,0,0,0-.11-0.27,0.51,0.51,0,0,0-.25-0.18,1.83,1.83,0,0,0-.47-0.1q-0.3,0-.75,0t-0.77,0a1.83,1.83,0,0,0-.47.1,0.55,0.55,0,0,0-.26.19,0.83,0.83,0,0,0-.12.3L11.55,40.8l0,0.17,0-.17L7.33,26.64a1.48,1.48,0,0,0-.13-0.3,0.49,0.49,0,0,0-.25-0.19,1.91,1.91,0,0,0-.5-0.1q-0.33,0-.86,0L4.85,26a1.76,1.76,0,0,0-.49.09,0.54,0.54,0,0,0-.26.17,0.46,0.46,0,0,0-.08.28,1.73,1.73,0,0,0,0,.32,4.16,4.16,0,0,0,.13.48l5,16.32a0.86,0.86,0,0,0,.17.32,0.76,0.76,0,0,0,.35.21,3.05,3.05,0,0,0,.61.11q0.37,0,1,0c0.38,0,.7,0,1,0a2.94,2.94,0,0,0,.64-0.11A0.84,0.84,0,0,0,13.29,44a0.8,0.8,0,0,0,.18-0.34l3.34-12.46,0-.17,0,0.17L20.5,43.7a0.86,0.86,0,0,0,.17.32,0.76,0.76,0,0,0,.35.21,3.12,3.12,0,0,0,.64.11q0.4,0,1,0c0.38,0,.7,0,1,0a2.45,2.45,0,0,0,.6-0.11A0.84,0.84,0,0,0,24.55,44a0.8,0.8,0,0,0,.18-0.34l5.06-16.32a4,4,0,0,0,.13-0.48,1.73,1.73,0,0,0,0-.32,0.44,0.44,0,0,0-.06-0.26h0Zm16.48,5.92A9.73,9.73,0,0,0,46,29.43a4.77,4.77,0,0,0-1.16-2,5.09,5.09,0,0,0-2.1-1.23,10.31,10.31,0,0,0-3.15-.42,10.79,10.79,0,0,0-2,.18,13.25,13.25,0,0,0-1.79.46,9.79,9.79,0,0,0-1.45.61,4.15,4.15,0,0,0-.89.58,1.09,1.09,0,0,0-.33.53,3.33,3.33,0,0,0-.07.75,3.39,3.39,0,0,0,0,.53,1.18,1.18,0,0,0,.12.39,0.65,0.65,0,0,0,.2.23,0.47,0.47,0,0,0,.27.08,1.6,1.6,0,0,0,.7-0.28q0.47-.28,1.16-0.61a11.29,11.29,0,0,1,1.62-.61,7.31,7.31,0,0,1,2.09-.28,5.64,5.64,0,0,1,1.83.26,2.92,2.92,0,0,1,1.21.76A3,3,0,0,1,43,30.61a6.64,6.64,0,0,1,.21,1.76V33.7H40.88a16.85,16.85,0,0,0-3.61.35,8.37,8.37,0,0,0-2.71,1.06,4.92,4.92,0,0,0-1.7,1.78,5.12,5.12,0,0,0-.59,2.52,5.44,5.44,0,0,0,.43,2.21,4.57,4.57,0,0,0,1.2,1.64,5.31,5.31,0,0,0,1.87,1,8,8,0,0,0,2.45.35A6.66,6.66,0,0,0,41.16,44a8.48,8.48,0,0,0,2.51-1.87v1.72a0.43,0.43,0,0,0,.13.34,1,1,0,0,0,.43.17,4.36,4.36,0,0,0,.79.06,4,4,0,0,0,.78-0.06,1.06,1.06,0,0,0,.42-0.17,0.4,0.4,0,0,0,.15-0.34V32.23h0Zm-3.13,7.39A9.92,9.92,0,0,1,41,41.55a4.42,4.42,0,0,1-2.3.63,3.35,3.35,0,0,1-2.38-.79,2.77,2.77,0,0,1-.85-2.13,3.09,3.09,0,0,1,.3-1.38,2.68,2.68,0,0,1,.93-1,4.65,4.65,0,0,1,1.58-.65A10.16,10.16,0,0,1,40.56,36h2.69v3.65h0Zm34.39-6.68a12.48,12.48,0,0,0-.3-2.76,6.26,6.26,0,0,0-1-2.28,5,5,0,0,0-1.82-1.56,6,6,0,0,0-2.79-.58,5.29,5.29,0,0,0-1.36.18,6.09,6.09,0,0,0-1.39.58,9.77,9.77,0,0,0-1.49,1.05,17.93,17.93,0,0,0-1.63,1.58,6.22,6.22,0,0,0-.76-1.38A4.69,4.69,0,0,0,64,26.71a5.18,5.18,0,0,0-1.5-.7,6.86,6.86,0,0,0-1.92-.25,5.65,5.65,0,0,0-2.76.75A11.17,11.17,0,0,0,55,28.89V26.62a0.47,0.47,0,0,0-.07-0.26,0.6,0.6,0,0,0-.22-0.19,1.15,1.15,0,0,0-.43-0.11q-0.28,0-.7,0a7,7,0,0,0-.71,0,1.28,1.28,0,0,0-.44.11,0.51,0.51,0,0,0-.23.19,0.53,0.53,0,0,0-.06.26V43.8a0.47,0.47,0,0,0,.07.26,0.51,0.51,0,0,0,.25.18,1.87,1.87,0,0,0,.49.11,6.42,6.42,0,0,0,.76,0,6.64,6.64,0,0,0,.78,0A1.8,1.8,0,0,0,55,44.24a0.6,0.6,0,0,0,.25-0.18,0.43,0.43,0,0,0,.08-0.26v-12a14.36,14.36,0,0,1,2.4-2.46,3.63,3.63,0,0,1,2.19-.84,3.16,3.16,0,0,1,1.52.34,2.88,2.88,0,0,1,1.06,1,4.87,4.87,0,0,1,.63,1.55,8.72,8.72,0,0,1,.21,2V43.8a0.47,0.47,0,0,0,.07.26,0.51,0.51,0,0,0,.25.18,1.89,1.89,0,0,0,.5.11,7.6,7.6,0,0,0,1.52,0,2,2,0,0,0,.49-0.11,0.6,0.6,0,0,0,.26-0.18,0.43,0.43,0,0,0,.08-0.26v-12a15.1,15.1,0,0,1,2.41-2.46,3.59,3.59,0,0,1,2.18-.84,3.22,3.22,0,0,1,1.53.34,2.86,2.86,0,0,1,1.07,1,4.59,4.59,0,0,1,.61,1.55,9.57,9.57,0,0,1,.19,2V43.8a0.43,0.43,0,0,0,.08.26,0.58,0.58,0,0,0,.26.18,1.87,1.87,0,0,0,.49.11,6.62,6.62,0,0,0,.78,0,6.42,6.42,0,0,0,.76,0,1.8,1.8,0,0,0,.48-0.11,0.6,0.6,0,0,0,.25-0.18,0.43,0.43,0,0,0,.08-0.26V32.94h0Zm18.68-.71A9.73,9.73,0,0,0,96,29.43a4.77,4.77,0,0,0-1.16-2,5.09,5.09,0,0,0-2.1-1.23,10.31,10.31,0,0,0-3.15-.42,10.79,10.79,0,0,0-2,.18,13.25,13.25,0,0,0-1.79.46,9.79,9.79,0,0,0-1.45.61,4.15,4.15,0,0,0-.89.58,1.09,1.09,0,0,0-.32.53,3.33,3.33,0,0,0-.07.75,3.39,3.39,0,0,0,0,.53,1.18,1.18,0,0,0,.12.39,0.65,0.65,0,0,0,.2.23,0.47,0.47,0,0,0,.27.08,1.6,1.6,0,0,0,.7-0.28q0.47-.28,1.16-0.61a11.29,11.29,0,0,1,1.62-.61,7.31,7.31,0,0,1,2.09-.28,5.64,5.64,0,0,1,1.83.26,2.92,2.92,0,0,1,1.21.76A3,3,0,0,1,93,30.61a6.64,6.64,0,0,1,.21,1.76V33.7H90.82a16.85,16.85,0,0,0-3.61.35,8.37,8.37,0,0,0-2.71,1.06,4.92,4.92,0,0,0-1.7,1.78,5.12,5.12,0,0,0-.59,2.52,5.44,5.44,0,0,0,.43,2.21,4.57,4.57,0,0,0,1.2,1.64,5.31,5.31,0,0,0,1.87,1,8,8,0,0,0,2.45.35A6.65,6.65,0,0,0,91.1,44a8.48,8.48,0,0,0,2.51-1.87v1.72a0.43,0.43,0,0,0,.13.34,1,1,0,0,0,.43.17,4.36,4.36,0,0,0,.79.06,4,4,0,0,0,.78-0.06,1.06,1.06,0,0,0,.42-0.17,0.4,0.4,0,0,0,.15-0.34V32.23h0Zm-3.13,7.39A9.92,9.92,0,0,1,91,41.55a4.42,4.42,0,0,1-2.3.63,3.35,3.35,0,0,1-2.38-.79,2.77,2.77,0,0,1-.85-2.13,3.09,3.09,0,0,1,.3-1.38,2.68,2.68,0,0,1,.93-1,4.66,4.66,0,0,1,1.58-.65A10.16,10.16,0,0,1,90.5,36h2.69v3.65h0ZM109.46,35l5-8a1.23,1.23,0,0,0,.19-0.48,0.29,0.29,0,0,0-.15-0.3,1.32,1.32,0,0,0-.53-0.14,8.88,8.88,0,0,0-.91,0q-0.52,0-.81,0a1.68,1.68,0,0,0-.46.1,0.8,0.8,0,0,0-.26.16,1.35,1.35,0,0,0-.17.21l-4,6.39-3.91-6.39a1.08,1.08,0,0,0-.17-0.23,0.67,0.67,0,0,0-.29-0.15,2.71,2.71,0,0,0-.53-0.09q-0.33,0-.89,0t-1,0a1.23,1.23,0,0,0-.55.16,0.34,0.34,0,0,0-.17.31,1.06,1.06,0,0,0,.16.45l5.06,8.07L99.8,43.43a1,1,0,0,0-.18.45,0.33,0.33,0,0,0,.15.3,1.2,1.2,0,0,0,.51.16,7,7,0,0,0,.91,0c0.36,0,.64,0,0.86,0a2.4,2.4,0,0,0,.53-0.1,0.77,0.77,0,0,0,.31-0.17,1.13,1.13,0,0,0,.18-0.24l4.1-6.81,4.12,6.81a1.13,1.13,0,0,0,.18.24,0.78,0.78,0,0,0,.31.17,2.43,2.43,0,0,0,.53.1c0.22,0,.53,0,0.91,0a7.83,7.83,0,0,0,1,0,1.41,1.41,0,0,0,.55-0.16,0.34,0.34,0,0,0,.18-0.3,1,1,0,0,0-.15-0.45L109.46,35h0Z" transform="translate(-3.63 -4.36)"/><path class="cls-1" d="M129.82,4.36c0-.09,4.65,8.25,6.69,12.39,0,0,2,4.05,2.18,6.37,0,1-.62.8-0.67,0.8a24,24,0,0,1-5.57-1.78,29.79,29.79,0,0,0-5.34-1.65c-0.64-.06-4.79-0.58-6.25,2.78-0.42-.07,1.93-5.76,2.47-6.9,2.65-5.63,6.49-11.92,6.49-12h0Z" transform="translate(-3.63 -4.36)"/><path class="cls-1" d="M120.91,24.22a5.77,5.77,0,0,1,1.62-1.76,4.86,4.86,0,0,1,3.13-.82,10.49,10.49,0,0,1,3.29.74c0.89,0.32,5.45,2.53,6.31,2.84a7.29,7.29,0,0,0,3.12.69,6.92,6.92,0,0,1-1,2.15c-0.21.3-.92,1.22-2.84,0.7a24.82,24.82,0,0,1-4-2.17c-0.23-.11-4.22-3-6.24-3.12a3.36,3.36,0,0,0-3.21,1.22c-0.08.12-.1,0.09-0.12,0.07a1.69,1.69,0,0,1,0-.54h0Z" transform="translate(-3.63 -4.36)"/><path class="cls-1" d="M121.1,25.33a0.16,0.16,0,0,1,0-.07,3.16,3.16,0,0,1,1.27-.74,3.82,3.82,0,0,1,1.78,0,6.65,6.65,0,0,1,2.2,1c0.31,0.19,3.38,2.49,3.92,2.88s2.75,2,4.44,2.3a6.73,6.73,0,0,1-4.14,1.67,10.61,10.61,0,0,1-6.44-2.14,7.74,7.74,0,0,1-3.06-4.92h0Z" transform="translate(-3.63 -4.36)"/></svg>